<svg id="Layer_1" enable-background="new 0 0 512 512" height="512" viewBox="0 0 512 512" width="512" xmlns="http://www.w3.org/2000/svg"><path d="m90 46v50.142c0 3.314.335 6.568.48 9.858h269.52v15c0 23.602-18.322 42.801-41.459 44.643 3.203-9.673 5.892-19.541 7.734-29.643h-232.551c5.938 32.584 19.08 63.235 38.708 90h-87.432c24.853 0 45 20.147 45 45s-20.147 45-45 45h362c24.814 0 45-20.186 45-45s-20.186-45-45-45h-119.433c6.98-9.518 13.002-19.587 18.307-30h9.126c41.353 0 75-33.647 75-75v-45h-60v-30z"/><path d="m452 346h-452c27.925 0 51.187 19.167 57.878 45h394.122v30h-394.122c-6.691 25.834-29.953 45-57.878 45h452c33.091 0 60-26.909 60-60s-26.909-60-60-60z"/></svg>